HIERARCHY
ROOT Hips
{
	OFFSET 0.000000 0.000000 0.000000
	CHANNELS 6 Xposition Yposition Zposition Zrotation Yrotation Xrotation 
	JOINT LeftUpLeg_virtual
	{
		OFFSET 0.000000 0.000000 0.000000
		CHANNELS 3 Zrotation Yrotation Xrotation
		JOINT LeftUpLeg
		{
			OFFSET 8.479694 -4.795517 -0.379053
			CHANNELS 3 Zrotation Yrotation Xrotation
			JOINT LeftLeg
			{
				OFFSET 0.485052 -32.551468 0.112863
				CHANNELS 3 Zrotation Yrotation Xrotation
				JOINT LeftFoot
				{
					OFFSET 0.438033 -32.635670 -3.012641
					CHANNELS 3 Zrotation Yrotation Xrotation
					JOINT LeftToeBase
					{
						OFFSET 0.970169 -13.225353 11.864223
						CHANNELS 3 Zrotation Yrotation Xrotation
						End Site
						{
							OFFSET 0.000000 0.000000 0.000000
						}
					}
				}
			}
		}
	}
	JOINT RightUpLeg_virtual
	{
		OFFSET 0.000000 0.000000 0.000000
		CHANNELS 3 Zrotation Yrotation Xrotation
		JOINT RightUpLeg
		{
			OFFSET -8.479694 -4.795517 -0.379053
			CHANNELS 3 Zrotation Yrotation Xrotation
			JOINT RightLeg
			{
				OFFSET -0.484100 -32.551483 0.112903
				CHANNELS 3 Zrotation Yrotation Xrotation
				JOINT RightFoot
				{
					OFFSET -0.438985 -32.635651 -3.012681
					CHANNELS 3 Zrotation Yrotation Xrotation
					JOINT RightToeBase
					{
						OFFSET -0.970169 -13.225354 11.864223
						CHANNELS 3 Zrotation Yrotation Xrotation
						End Site
						{
							OFFSET 0.000000 0.000000 0.000000
						}
					}
				}
			}
		}
	}
	JOINT Spine_virtual
	{
		OFFSET 0.000000 0.000000 0.000000
		CHANNELS 3 Zrotation Yrotation Xrotation
		JOINT Spine
		{
			OFFSET 0.000000 7.722015 1.166203
			CHANNELS 3 Zrotation Yrotation Xrotation
			JOINT Spine1
			{
				OFFSET 0.000000 12.024086 0.248766
				CHANNELS 3 Zrotation Yrotation Xrotation
				JOINT Spine2
				{
					OFFSET -0.000000 11.503036 -0.491240
					CHANNELS 3 Zrotation Yrotation Xrotation
					JOINT Neck_virtual
					{
						OFFSET 0.000000 0.000000 0.000000
						CHANNELS 3 Zrotation Yrotation Xrotation
						JOINT Neck
						{
							OFFSET 0.000000 18.430687 -3.123054
							CHANNELS 3 Zrotation Yrotation Xrotation
							JOINT Head
							{
								OFFSET -0.000000 9.051071 1.034021
								CHANNELS 3 Zrotation Yrotation Xrotation
								End Site
								{
									OFFSET 0.000000 0.000000 0.000000
								}
							}
						}
					}
					JOINT LeftShoulder_virtual
					{
						OFFSET 0.000000 0.000000 0.000000
						CHANNELS 3 Zrotation Yrotation Xrotation
						JOINT LeftShoulder
						{
							OFFSET 6.197824 13.665230 -4.064723
							CHANNELS 3 Zrotation Yrotation Xrotation
							JOINT LeftArm
							{
								OFFSET 7.778132 -0.187073 -1.709282
								CHANNELS 3 Zrotation Yrotation Xrotation
								JOINT LeftForeArm
								{
									OFFSET 21.954697 0.000000 -2.041093
									CHANNELS 3 Zrotation Yrotation Xrotation
									JOINT LeftHand
									{
										OFFSET 22.992908 0.000000 -0.870901
										CHANNELS 3 Zrotation Yrotation Xrotation
										End Site
										{
											OFFSET 0.000000 0.000000 0.000000
										}
									}
								}
							}
						}
					}
					JOINT RightShoulder_virtual
					{
						OFFSET 0.000000 0.000000 0.000000
						CHANNELS 3 Zrotation Yrotation Xrotation
						JOINT RightShoulder
						{
							OFFSET -6.197824 13.665230 -4.064723
							CHANNELS 3 Zrotation Yrotation Xrotation
							JOINT RightArm
							{
								OFFSET -7.778132 -0.187073 -1.709282
								CHANNELS 3 Zrotation Yrotation Xrotation
								JOINT RightForeArm
								{
									OFFSET -21.954697 0.000000 -2.041093
									CHANNELS 3 Zrotation Yrotation Xrotation
									JOINT RightHand
									{
										OFFSET -22.992908 0.000000 -0.870901
										CHANNELS 3 Zrotation Yrotation Xrotation
										End Site
										{
											OFFSET 0.000000 0.000000 0.000000
										}
									}
								}
							}
						}
					}
				}
			}
		}
	}
}
MOTION
Frames: 10
Frame Time: 0.033333
16.022243 82.277382 -3.524017 179.998188 5.749892 179.994623 -4.166628 -0.624993 11.372445 2.062662 1.159541 -22.904025 4.406579 5.489095 26.687653 -5.835160 -8.275190 -7.285867 0.000000 0.000000 0.000000 0.170304 -1.050029 11.181256 -1.328087 -6.974631 -14.966823 -0.831302 3.943138 22.366117 9.605972 10.148236 -3.432205 0.000000 0.000000 0.000000 3.089420 1.963829 0.894785 -7.147645 0.435784 -0.945586 1.001299 -3.018947 3.871030 0.016533 0.015466 0.005684 0.778629 -2.009588 4.101722 0.572053 2.659426 -18.208994 0.000000 0.000000 0.000000 2.151742 -1.116282 1.711345 13.185176 5.196619 -4.749781 -22.600457 2.874073 -39.746811 -7.042512 -17.452460 -6.518057 0.000000 0.000000 0.000000 -1.748144 0.129406 1.161796 6.747242 -10.126324 -5.868172 14.055804 -9.798498 -44.809395 -0.515066 31.808888 -6.131326 0.000000 0.000000 0.000000 
16.003263 82.276413 -3.458736 179.850888 5.552769 179.986413 -4.346788 -0.597777 11.471743 1.939624 1.370667 -22.859462 4.487809 5.659604 26.827398 -5.653932 -8.046060 -7.395136 0.000000 0.000000 0.000000 0.207983 -0.856160 11.298957 -1.321267 -7.150102 -15.009124 -0.734388 4.136492 22.645207 9.498379 10.115307 -2.960230 0.000000 0.000000 0.000000 2.868559 1.970637 1.002438 -7.070037 0.403022 -0.925002 1.005876 -3.071978 3.899589 0.026947 -0.039257 0.047862 0.792182 -1.965237 4.118147 0.591813 2.559284 -18.129892 0.000000 0.000000 0.000000 2.138053 -0.987928 1.747490 13.182225 5.180018 -4.598598 -22.677601 2.791014 -39.775422 -6.915638 -17.501388 -6.366290 0.000000 0.000000 0.000000 -1.730163 0.123101 1.187317 6.678124 -10.061002 -5.806025 13.821846 -9.661831 -45.042485 -0.505655 31.702808 -6.041733 0.000000 0.000000 0.000000 
15.991987 82.277344 -3.402093 179.975007 5.493480 -179.986181 -4.256678 -0.494592 11.532443 1.986400 1.331231 -22.991733 4.490854 5.630977 26.718276 -5.729543 -8.106098 -7.454956 0.000000 0.000000 0.000000 0.329036 -0.774274 11.422962 -1.234758 -7.270924 -15.164150 -0.699805 4.146238 22.629658 9.558005 9.994493 -2.919705 0.000000 0.000000 0.000000 2.904327 2.052424 1.162557 -6.882126 0.464643 -0.943355 0.987911 -3.031710 3.897939 0.022903 0.000200 0.074141 0.745680 -2.005372 4.123316 0.647110 2.383033 -18.004391 0.000000 0.000000 0.000000 2.116964 -1.092248 1.698331 13.103242 4.977020 -4.716834 -22.769066 3.068128 -39.567108 -6.863686 -17.661346 -6.315716 0.000000 0.000000 0.000000 -1.777272 0.104001 1.227558 6.635413 -9.974640 -5.692200 13.645312 -9.599765 -45.137025 -0.604890 31.636528 -6.061938 0.000000 0.000000 0.000000 
16.011881 82.281746 -3.364116 179.958395 5.267802 179.941115 -4.281930 -0.476488 11.639291 1.945485 1.403973 -23.046829 4.611507 5.501737 26.592049 -5.963221 -8.294171 -7.357996 0.000000 0.000000 0.000000 0.346764 -0.863802 11.580722 -1.244985 -7.415617 -15.242658 -0.699667 3.963779 22.600596 9.726734 9.924679 -2.892174 0.000000 0.000000 0.000000 2.867507 2.061603 1.271369 -6.713228 0.485431 -0.887451 0.965484 -3.052002 3.945250 0.031188 -0.022155 0.049594 0.711715 -1.994243 4.109341 0.661845 2.169696 -17.792539 0.000000 0.000000 0.000000 2.063840 -1.043765 1.727282 13.015025 4.868251 -4.810551 -22.855524 3.179957 -39.429685 -6.687185 -17.912690 -6.093923 0.000000 0.000000 0.000000 -1.808996 0.136988 1.156147 6.611437 -9.853759 -5.548621 13.557323 -9.851741 -45.075707 -0.757941 31.545693 -5.992850 0.000000 0.000000 0.000000 
16.038174 82.289474 -3.356638 179.896418 5.113691 179.939571 -4.334654 -0.531780 11.675092 2.031494 1.116826 -23.053546 4.579699 5.513452 26.578086 -5.931157 -8.322781 -7.364781 0.000000 0.000000 0.000000 0.344792 -0.899602 11.645297 -1.264427 -7.646508 -15.289585 -0.619388 3.968942 22.634376 9.833975 9.808315 -2.860648 0.000000 0.000000 0.000000 2.833612 2.070326 1.257206 -6.522738 0.518316 -0.846821 0.919662 -3.037820 3.999274 -0.007020 -0.014967 0.065333 0.787524 -1.928800 4.077107 0.678837 1.912781 -17.470932 0.000000 0.000000 0.000000 2.118676 -0.954774 1.699313 12.925788 4.531198 -4.697538 -22.939236 3.393062 -39.388468 -6.362167 -18.244887 -6.011252 0.000000 0.000000 0.000000 -1.743127 0.119568 1.160161 6.577746 -9.700895 -5.507129 13.491335 -10.096918 -45.104896 -0.880768 31.394555 -5.839796 0.000000 0.000000 0.000000 
16.046270 82.296104 -3.367859 179.894847 4.894909 -179.977752 -4.324317 -0.566439 11.599329 2.065674 0.999474 -23.065255 4.604668 5.584152 26.556050 -6.035992 -8.366840 -7.300667 0.000000 0.000000 0.000000 0.354450 -0.897061 11.623369 -1.213561 -7.929214 -15.340852 -0.616566 3.964302 22.660928 10.028056 9.626048 -2.833396 0.000000 0.000000 0.000000 2.816643 2.093633 1.127445 -6.277940 0.525147 -0.847025 0.912261 -3.040096 4.051899 -0.009209 -0.020396 0.045164 0.794193 -1.928784 4.028280 0.643575 1.549576 -17.105959 0.000000 0.000000 0.000000 2.129657 -1.003575 1.658031 12.732701 4.271843 -4.653392 -23.094922 3.669438 -39.253907 -6.074018 -18.598407 -5.755048 0.000000 0.000000 0.000000 -1.724956 0.161338 1.168277 6.602758 -9.387926 -5.093063 13.686775 -10.385489 -45.430887 -1.074284 31.386680 -5.743341 0.000000 0.000000 0.000000 
16.068375 82.310616 -3.364247 179.883004 4.640357 179.918097 -4.366819 -0.467602 11.596230 2.149512 0.836229 -22.965476 4.623171 5.554511 26.565739 -6.116045 -8.402132 -7.238889 0.000000 0.000000 0.000000 0.344323 -0.942472 11.688971 -1.169215 -8.161251 -15.290813 -0.627511 3.926257 22.723338 10.202990 9.430072 -2.807411 0.000000 0.000000 0.000000 2.779530 2.168752 1.136485 -5.998167 0.550162 -0.811765 0.936235 -2.985692 4.069679 0.026291 0.002371 0.046164 0.749915 -1.902950 4.007419 0.520150 1.204870 -16.538625 0.000000 0.000000 0.000000 2.080964 -0.963336 1.671918 12.380109 3.870233 -4.601092 -23.342590 3.993728 -39.030467 -5.694494 -19.134287 -5.447449 0.000000 0.000000 0.000000 -1.746112 0.110268 1.113928 6.662564 -9.059476 -4.864838 14.170152 -10.902809 -45.774244 -1.282386 31.551874 -5.628642 0.000000 0.000000 0.000000 
16.086428 82.327332 -3.353331 179.941839 4.439396 179.937673 -4.364493 -0.346041 11.583185 2.266060 0.782398 -22.962539 4.645771 5.616887 26.504448 -6.226591 -8.454269 -7.161432 0.000000 0.000000 0.000000 0.366287 -0.897302 11.690574 -1.066317 -8.321535 -15.306638 -0.687871 3.868877 22.735581 10.373891 9.182895 -2.770397 0.000000 0.000000 0.000000 2.790727 2.195317 1.076367 -5.639868 0.556164 -0.863152 0.962472 -2.975848 4.097336 -0.001214 -0.008501 0.046523 0.800574 -1.860486 3.986436 0.343930 0.831675 -15.895737 0.000000 0.000000 0.000000 2.140763 -0.911161 1.653782 11.996193 3.611295 -4.832892 -24.065681 4.605082 -38.429055 -5.378328 -20.080657 -5.029550 0.000000 0.000000 0.000000 -1.680048 0.203425 1.111331 6.766183 -8.587005 -4.377659 15.228113 -11.457040 -46.394514 -1.702358 32.262873 -5.816686 0.000000 0.000000 0.000000 
16.118261 82.342003 -3.325249 179.867540 4.192795 179.933739 -4.425781 -0.316582 11.583487 2.386687 0.367743 -23.013149 4.652281 5.675792 26.435277 -6.264896 -8.488674 -7.084764 0.000000 0.000000 0.000000 0.298261 -0.937480 11.691744 -1.026058 -8.486600 -15.349836 -0.599922 3.944987 22.698132 10.411102 8.994294 -2.735387 0.000000 0.000000 0.000000 2.723654 2.168626 1.028396 -5.313919 0.568684 -0.957806 0.966063 -2.940184 4.154850 0.005417 -0.016363 0.054797 0.823936 -1.806241 4.034315 0.111287 0.479892 -15.101106 0.000000 0.000000 0.000000 2.200913 -0.897900 1.632568 11.336863 3.212325 -4.495698 -25.243727 5.253069 -37.617649 -4.822606 -21.819410 -4.677092 0.000000 0.000000 0.000000 -1.679994 0.319628 1.110579 6.992722 -8.102583 -4.154475 16.829105 -12.393286 -47.250487 -1.817700 33.709763 -5.738191 0.000000 0.000000 0.000000 
16.172880 82.369492 -3.281579 179.867008 4.056546 179.925802 -4.462749 -0.229830 11.680083 2.526775 0.156144 -23.067306 4.662951 5.764958 26.290056 -6.316389 -8.553822 -6.933441 0.000000 0.000000 0.000000 0.280454 -0.987749 11.738419 -0.926623 -8.643942 -15.343168 -0.608143 3.990506 22.600676 10.528133 8.797732 -2.649667 0.000000 0.000000 0.000000 2.741698 2.185514 0.955565 -4.927432 0.662988 -1.115034 0.981623 -2.826836 4.247878 -0.005502 0.048940 0.032084 0.874168 -1.690163 4.133873 -0.195118 0.244740 -14.128716 0.000000 0.000000 0.000000 2.231420 -0.921043 1.742634 10.465918 2.808517 -4.430718 -26.999147 6.003905 -36.514632 -4.359945 -24.523777 -3.965475 0.000000 0.000000 0.000000 -1.635670 0.213694 1.081465 7.349223 -7.792542 -3.774316 19.180414 -13.288831 -47.878246 -2.061270 36.219018 -5.877411 0.000000 0.000000 0.000000 
